# Blender v2.77 (sub 0) OBJ File: 'argwitheyes-revised.blend'
# www.blender.org
mtllib eyes.003.mtl
o eyes.003
v 7.760611 16.910770 -0.413090
v 7.760611 17.251911 -0.413090
v 7.460997 17.251911 -0.413090
v 7.460997 16.910919 -0.413086
v 7.460997 16.569777 -0.413086
v 7.760611 16.569777 -0.413086
v 8.060225 16.569777 -0.413086
v 8.359838 16.910919 -0.413086
v 8.060225 16.910919 -0.413086
v 8.060225 17.251911 -0.413090
v 7.161383 16.910770 -0.413090
v 7.127904 16.910767 -0.413086
v 7.449615 16.544624 -0.413086
v 7.760611 16.544624 -0.413086
v 8.071610 16.544624 -0.413086
v 8.393318 16.910923 -0.413086
v 8.071607 17.277065 -0.413090
v 7.760611 17.277065 -0.413090
v 7.449612 17.277065 -0.413090
vt 0.494618 0.498150
vt 0.494618 0.739357
vt 0.245977 0.739357
vt 0.282775 0.498256
vt 0.245977 0.254512
vt 0.494618 0.257050
vt 0.745796 0.254512
vt 0.933530 0.495718
vt 0.706461 0.498256
vt 0.745796 0.739357
vt 0.051898 0.495612
vt 0.028227 0.495610
vt 0.237929 0.236727
vt 0.494618 0.239265
vt 0.753846 0.236727
vt 0.957202 0.495721
vt 0.753843 0.757142
vt 0.494618 0.757142
vt 0.237927 0.757142
vn 0.000000 0.000000 1.000000
vn 0.000100 0.000000 1.000000
usemtl surfaceShader2SG
s 1
f 1/1/1 2/2/1 3/3/1 4/4/1
f 5/5/1 6/6/1 1/1/1 4/4/1
f 7/7/1 8/8/1 9/9/1
f 7/7/1 9/9/1 1/1/1 6/6/1
f 8/8/1 10/10/1 9/9/1
f 10/10/1 2/2/1 1/1/1 9/9/1
f 3/3/1 11/11/1 4/4/1
f 5/5/1 4/4/1 11/11/1
usemtl surfaceShader3SG
f 5/5/1 11/11/1 12/12/2 13/13/1
f 7/7/1 6/6/1 14/14/1 15/15/1
f 8/8/1 7/7/1 15/15/1 16/16/1
f 2/2/1 10/10/1 17/17/1 18/18/1
f 6/6/1 5/5/1 13/13/1 14/14/1
f 10/10/1 8/8/1 16/16/1 17/17/1
f 3/3/1 2/2/1 18/18/1 19/19/1
f 11/11/1 3/3/1 19/19/1 12/12/2
