# Blender v2.77 (sub 0) OBJ File: 'argwitheyes-revised.blend'
# www.blender.org
mtllib eyes.023.mtl
o eyes.023_eyes.024
v -2.008209 14.571787 0.359037
v -1.906711 14.897472 0.361405
v -1.927875 14.906240 0.062668
v -2.029333 14.580699 0.060302
v -2.130832 14.255014 0.057933
v -2.109668 14.246246 0.356670
v -2.088503 14.237478 0.655407
v -1.965840 14.554395 0.956512
v -1.987004 14.563163 0.657775
v -1.885546 14.888704 0.660142
v -2.050538 14.589323 -0.238437
v -2.052908 14.590301 -0.271817
v -2.139119 14.231334 0.046410
v -2.117151 14.222233 0.356496
v -2.095183 14.213132 0.666585
v -1.963474 14.553419 0.989893
v -1.877259 14.912384 0.671665
v -1.899227 14.921485 0.361580
v -1.921195 14.930587 0.051491
vt 0.494618 0.498150
vt 0.494618 0.739357
vt 0.245977 0.739357
vt 0.282775 0.498256
vt 0.245977 0.254512
vt 0.494618 0.257050
vt 0.745796 0.254512
vt 0.933530 0.495718
vt 0.706461 0.498256
vt 0.745796 0.739357
vt 0.051898 0.495612
vt 0.028227 0.495610
vt 0.237929 0.236727
vt 0.494618 0.239265
vt 0.753846 0.236727
vt 0.957202 0.495721
vt 0.753843 0.757142
vt 0.494618 0.757142
vt 0.237927 0.757142
vn -0.952100 0.296200 0.076100
vn -0.952100 0.296200 0.076200
vn -0.952100 0.296100 0.076200
usemtl surfaceShader2SG
s 1
f 1/1/1 2/2/1 3/3/2 4/4/1
f 5/5/2 6/6/1 1/1/1 4/4/1
f 7/7/1 8/8/1 9/9/1
f 7/7/1 9/9/1 1/1/1 6/6/1
f 8/8/1 10/10/1 9/9/1
f 10/10/1 2/2/1 1/1/1 9/9/1
f 3/3/2 11/11/2 4/4/1
f 5/5/2 4/4/1 11/11/2
usemtl surfaceShader3SG
f 5/5/2 11/11/2 12/12/2 13/13/2
f 7/7/1 6/6/1 14/14/1 15/15/1
f 8/8/1 7/7/1 15/15/1 16/16/1
f 2/2/1 10/10/1 17/17/1 18/18/1
f 6/6/1 5/5/2 13/13/2 14/14/1
f 10/10/1 8/8/1 16/16/1 17/17/1
f 3/3/2 2/2/1 18/18/1 19/19/3
f 11/11/2 3/3/2 19/19/3 12/12/2
