# Blender v2.77 (sub 0) OBJ File: 'argwitheyes-revised.blend'
# www.blender.org
mtllib eyes.014.mtl
o eyes.014
v -0.007681 9.826307 2.368048
v -0.007681 10.167450 2.368048
v -0.307295 10.167450 2.368048
v -0.307295 9.826458 2.368052
v -0.307295 9.485314 2.368052
v -0.007681 9.485314 2.368052
v 0.291932 9.485314 2.368052
v 0.591546 9.826458 2.368052
v 0.291932 9.826458 2.368052
v 0.291932 10.167450 2.368048
v -0.606909 9.826307 2.368048
v -0.640388 9.826303 2.368052
v -0.318677 9.460161 2.368052
v -0.007681 9.460161 2.368052
v 0.303318 9.460161 2.368052
v 0.625025 9.826462 2.368052
v 0.303314 10.192603 2.368048
v -0.007681 10.192603 2.368048
v -0.318681 10.192603 2.368048
vt 0.494618 0.498150
vt 0.494618 0.739357
vt 0.245977 0.739357
vt 0.282775 0.498256
vt 0.245977 0.254512
vt 0.494618 0.257050
vt 0.745796 0.254512
vt 0.933530 0.495718
vt 0.706461 0.498256
vt 0.745796 0.739357
vt 0.051898 0.495612
vt 0.028227 0.495610
vt 0.237929 0.236727
vt 0.494618 0.239265
vt 0.753846 0.236727
vt 0.957202 0.495721
vt 0.753843 0.757142
vt 0.494618 0.757142
vt 0.237927 0.757142
vn -0.000000 0.000000 1.000000
vn 0.000100 0.000000 1.000000
usemtl surfaceShader2SG
s 1
f 1/1/1 2/2/1 3/3/1 4/4/1
f 5/5/1 6/6/1 1/1/1 4/4/1
f 7/7/1 8/8/1 9/9/1
f 7/7/1 9/9/1 1/1/1 6/6/1
f 8/8/1 10/10/1 9/9/1
f 10/10/1 2/2/1 1/1/1 9/9/1
f 3/3/1 11/11/1 4/4/1
f 5/5/1 4/4/1 11/11/1
usemtl surfaceShader3SG
f 5/5/1 11/11/1 12/12/2 13/13/1
f 7/7/1 6/6/1 14/14/1 15/15/1
f 8/8/1 7/7/1 15/15/1 16/16/1
f 2/2/1 10/10/1 17/17/1 18/18/1
f 6/6/1 5/5/1 13/13/1 14/14/1
f 10/10/1 8/8/1 16/16/1 17/17/1
f 3/3/1 2/2/1 18/18/1 19/19/1
f 11/11/1 3/3/1 19/19/1 12/12/2
