# Blender v2.77 (sub 0) OBJ File: 'argwitheyes-revised.blend'
# www.blender.org
mtllib eyes.018.mtl
o eyes.018
v -0.023224 3.071453 -1.899775
v -0.023224 3.412595 -1.899775
v 0.276389 3.412595 -1.899775
v 0.276389 3.071603 -1.899779
v 0.276389 2.730460 -1.899779
v -0.023224 2.730460 -1.899779
v -0.322838 2.730460 -1.899779
v -0.622452 3.071603 -1.899779
v -0.322838 3.071603 -1.899779
v -0.322838 3.412595 -1.899775
v 0.576003 3.071453 -1.899775
v 0.609482 3.071449 -1.899779
v 0.287771 2.705307 -1.899779
v -0.023224 2.705307 -1.899779
v -0.334223 2.705307 -1.899779
v -0.655931 3.071606 -1.899779
v -0.334220 3.437749 -1.899775
v -0.023224 3.437749 -1.899775
v 0.287775 3.437749 -1.899775
vt 0.494618 0.498150
vt 0.494618 0.739357
vt 0.245977 0.739357
vt 0.282775 0.498256
vt 0.245977 0.254512
vt 0.494618 0.257050
vt 0.745796 0.254512
vt 0.933530 0.495718
vt 0.706461 0.498256
vt 0.745796 0.739357
vt 0.051898 0.495612
vt 0.028227 0.495610
vt 0.237929 0.236727
vt 0.494618 0.239265
vt 0.753846 0.236727
vt 0.957202 0.495721
vt 0.753843 0.757142
vt 0.494618 0.757142
vt 0.237927 0.757142
vn -0.000000 0.000000 -1.000000
vn -0.000100 0.000000 -1.000000
usemtl surfaceShader2SG
s 1
f 1/1/1 2/2/1 3/3/1 4/4/1
f 5/5/1 6/6/1 1/1/1 4/4/1
f 7/7/1 8/8/1 9/9/1
f 7/7/1 9/9/1 1/1/1 6/6/1
f 8/8/1 10/10/1 9/9/1
f 10/10/1 2/2/1 1/1/1 9/9/1
f 3/3/1 11/11/1 4/4/1
f 5/5/1 4/4/1 11/11/1
usemtl surfaceShader3SG
f 5/5/1 11/11/1 12/12/2 13/13/1
f 7/7/1 6/6/1 14/14/1 15/15/1
f 8/8/1 7/7/1 15/15/1 16/16/1
f 2/2/1 10/10/1 17/17/1 18/18/1
f 6/6/1 5/5/1 13/13/1 14/14/1
f 10/10/1 8/8/1 16/16/1 17/17/1
f 3/3/1 2/2/1 18/18/1 19/19/1
f 11/11/1 3/3/1 19/19/1 12/12/2
