<?xml version="1.0" encoding="utf-8"?>
<!-- Generator: Adobe Illustrator 16.0.0, SVG Export Plug-In . SVG Version: 6.00 Build 0)  -->
<!DOCTYPE svg PUBLIC "-//W3C//DTD SVG 1.1//EN" "http://www.w3.org/Graphics/SVG/1.1/DTD/svg11.dtd">
<svg version="1.1" id="Layer_1" xmlns="http://www.w3.org/2000/svg" xmlns:xlink="http://www.w3.org/1999/xlink" x="0px" y="0px"
	 width="136.181px" height="67.917px" viewBox="0 0 136.181 67.917" enable-background="new 0 0 136.181 67.917"
	 xml:space="preserve">
<g>
	<g>
		<g>
			<g>
				<path fill="none" stroke="#FFFFFF" stroke-width="4" stroke-miterlimit="10" d="M68.09,2c-9.486,0-17.709,5.395-21.781,13.281
					c4.072,7.887,12.295,13.282,21.781,13.282c9.488,0,17.711-5.396,21.783-13.282C85.801,7.395,77.578,2,68.09,2z"/>
			</g>
			<circle fill="#FFFFFF" cx="68.09" cy="15.281" r="5.125"/>
		</g>
		<g>
			<g>
				<path fill="none" stroke="#FFFFFF" stroke-width="4" stroke-miterlimit="10" d="M68.09,39.354
					c-9.486,0-17.709,5.395-21.781,13.281c4.072,7.887,12.295,13.282,21.781,13.282c9.488,0,17.711-5.396,21.783-13.282
					C85.801,44.748,77.578,39.354,68.09,39.354z"/>
			</g>
			<circle fill="#FFFFFF" cx="68.09" cy="52.635" r="5.125"/>
		</g>
	</g>
	<g>
		<g>
			<g>
				<path fill="none" stroke="#FFFFFF" stroke-width="4" stroke-miterlimit="10" d="M112.146,20.677
					c-9.486,0-17.709,5.395-21.781,13.281c4.072,7.887,12.295,13.282,21.781,13.282c9.488,0,17.711-5.396,21.783-13.282
					C129.857,26.071,121.635,20.677,112.146,20.677z"/>
			</g>
			<circle fill="#FFFFFF" cx="112.146" cy="33.958" r="5.125"/>
		</g>
		<g>
			<g>
				<path fill="none" stroke="#FFFFFF" stroke-width="4" stroke-miterlimit="10" stroke-dasharray="1,2" d="M24.032,20.677
					c-9.486,0-17.709,5.395-21.781,13.281C6.323,41.845,14.546,47.24,24.032,47.24c9.488,0,17.711-5.396,21.783-13.282
					C41.743,26.071,33.521,20.677,24.032,20.677z"/>
			</g>
			<circle fill="#FFFFFF" cx="24.032" cy="33.958" r="5.125"/>
		</g>
	</g>
</g>
</svg>
