<?xml version="1.0" encoding="utf-8"?>
<!-- Generator: Adobe Illustrator 16.0.0, SVG Export Plug-In . SVG Version: 6.00 Build 0)  -->
<!DOCTYPE svg PUBLIC "-//W3C//DTD SVG 1.1//EN" "http://www.w3.org/Graphics/SVG/1.1/DTD/svg11.dtd">
<svg version="1.1" id="Layer_1" xmlns="http://www.w3.org/2000/svg" xmlns:xlink="http://www.w3.org/1999/xlink" x="0px" y="0px"
	 width="480.297px" height="792.143px" viewBox="0 0 480.297 792.143" enable-background="new 0 0 480.297 792.143"
	 xml:space="preserve">
<path fill="none" stroke="#FFFFFF" stroke-width="1.3958" stroke-miterlimit="10" d="M0.7,567.609v188.836
	c0,19.33,15.576,35,34.791,35h429.388l14.72-14.809V420.365l-24.631-24.779l24.229-24.375v-69.262l-13.787-13.87V130.533
	l13.224-13.304l-0.06-102.697L464.879,0.698H35.491c-19.214,0-34.791,15.67-34.791,35v193.329"/>
<line fill="none" stroke="#FFFFFF" stroke-width="1.4" stroke-miterlimit="10" stroke-dasharray="8,6" x1="0.7" y1="562.694" x2="0.7" y2="234.192"/>
<polyline fill="none" stroke="#FFFFFF" stroke-width="0.7" stroke-miterlimit="10" stroke-dasharray="2,2" points="18.7,59.525 
	18.7,97.525 26.783,105.609 26.783,642.857 18.242,651.398 18.242,693.357 "/>
<circle fill="none" stroke="#F57F23" stroke-width="1.5" stroke-miterlimit="10" cx="18.742" cy="52.815" r="4.083"/>
<circle fill="none" stroke="#F57F23" stroke-width="1.5" stroke-miterlimit="10" cx="18.742" cy="701.515" r="4.083"/>
<circle fill="none" stroke="#F57F23" stroke-width="0.6275" stroke-miterlimit="10" cx="68.266" cy="780.611" r="1.708"/>
<circle fill="none" stroke="#F57F23" stroke-width="0.6275" stroke-miterlimit="10" cx="75.699" cy="780.611" r="1.708"/>
<circle fill="none" stroke="#F57F23" stroke-width="0.6275" stroke-miterlimit="10" cx="83.133" cy="780.611" r="1.708"/>
<circle fill="none" stroke="#F57F23" stroke-width="0.6275" stroke-miterlimit="10" cx="90.566" cy="780.611" r="1.708"/>
<circle fill="none" stroke="#F57F23" stroke-width="0.6275" stroke-miterlimit="10" cx="97.999" cy="780.611" r="1.708"/>
<circle fill="#F57F23" stroke="#F57F23" stroke-width="0.6275" stroke-miterlimit="10" cx="105.432" cy="780.611" r="1.708"/>
<circle fill="#F57F23" stroke="#F57F23" stroke-width="0.6275" stroke-miterlimit="10" cx="112.865" cy="780.611" r="1.708"/>
<circle fill="#F57F23" stroke="#F57F23" stroke-width="0.6275" stroke-miterlimit="10" cx="120.298" cy="780.611" r="1.708"/>
<circle fill="#F57F23" stroke="#F57F23" stroke-width="0.6275" stroke-miterlimit="10" cx="127.731" cy="780.611" r="1.708"/>
<circle fill="#F57F23" stroke="#F57F23" stroke-width="0.6275" stroke-miterlimit="10" cx="135.164" cy="780.611" r="1.708"/>
<circle fill="#F57F23" stroke="#F57F23" stroke-width="0.6275" stroke-miterlimit="10" cx="142.597" cy="780.611" r="1.708"/>
<circle fill="#F57F23" stroke="#F57F23" stroke-width="0.6275" stroke-miterlimit="10" cx="150.031" cy="780.611" r="1.708"/>
<circle fill="#F57F23" stroke="#F57F23" stroke-width="0.6275" stroke-miterlimit="10" cx="157.464" cy="780.611" r="1.708"/>
<circle fill="#F57F23" stroke="#F57F23" stroke-width="0.6275" stroke-miterlimit="10" cx="164.897" cy="780.611" r="1.708"/>
<circle fill="#F57F23" stroke="#F57F23" stroke-width="0.6275" stroke-miterlimit="10" cx="172.33" cy="780.611" r="1.708"/>
<circle fill="#F57F23" stroke="#F57F23" stroke-width="0.6275" stroke-miterlimit="10" cx="179.763" cy="780.611" r="1.708"/>
<circle fill="#F57F23" stroke="#F57F23" stroke-width="0.6275" stroke-miterlimit="10" cx="187.196" cy="780.611" r="1.708"/>
<circle fill="#F57F23" stroke="#F57F23" stroke-width="0.6275" stroke-miterlimit="10" cx="194.629" cy="780.611" r="1.708"/>
<circle fill="#F57F23" stroke="#F57F23" stroke-width="0.6275" stroke-miterlimit="10" cx="202.062" cy="780.611" r="1.708"/>
<circle fill="#F57F23" stroke="#F57F23" stroke-width="0.6275" stroke-miterlimit="10" cx="209.495" cy="780.611" r="1.708"/>
<circle fill="#F57F23" stroke="#F57F23" stroke-width="0.6275" stroke-miterlimit="10" cx="216.928" cy="780.611" r="1.708"/>
<circle fill="#F57F23" stroke="#F57F23" stroke-width="0.6275" stroke-miterlimit="10" cx="224.362" cy="780.611" r="1.708"/>
<circle fill="#F57F23" stroke="#F57F23" stroke-width="0.6275" stroke-miterlimit="10" cx="231.795" cy="780.611" r="1.708"/>
<circle fill="#F57F23" stroke="#F57F23" stroke-width="0.6275" stroke-miterlimit="10" cx="239.228" cy="780.611" r="1.708"/>
<circle fill="#F57F23" stroke="#F57F23" stroke-width="0.6275" stroke-miterlimit="10" cx="246.661" cy="780.611" r="1.708"/>
<circle fill="#F57F23" stroke="#F57F23" stroke-width="0.6275" stroke-miterlimit="10" cx="254.094" cy="780.611" r="1.708"/>
<circle fill="#F57F23" stroke="#F57F23" stroke-width="0.6275" stroke-miterlimit="10" cx="261.527" cy="780.611" r="1.708"/>
<circle fill="#F57F23" stroke="#F57F23" stroke-width="0.6275" stroke-miterlimit="10" cx="268.96" cy="780.611" r="1.708"/>
<circle fill="#F57F23" stroke="#F57F23" stroke-width="0.6275" stroke-miterlimit="10" cx="276.393" cy="780.611" r="1.708"/>
<circle fill="#F57F23" stroke="#F57F23" stroke-width="0.6275" stroke-miterlimit="10" cx="283.826" cy="780.611" r="1.708"/>
<circle fill="#F57F23" stroke="#F57F23" stroke-width="0.6275" stroke-miterlimit="10" cx="291.26" cy="780.611" r="1.708"/>
<circle fill="#F57F23" stroke="#F57F23" stroke-width="0.6275" stroke-miterlimit="10" cx="298.693" cy="780.611" r="1.708"/>
<circle fill="#F57F23" stroke="#F57F23" stroke-width="0.6275" stroke-miterlimit="10" cx="306.126" cy="780.611" r="1.708"/>
<circle fill="#F57F23" stroke="#F57F23" stroke-width="0.6275" stroke-miterlimit="10" cx="313.559" cy="780.611" r="1.708"/>
<circle fill="#F57F23" stroke="#F57F23" stroke-width="0.6275" stroke-miterlimit="10" cx="320.992" cy="780.611" r="1.708"/>
<circle fill="#F57F23" stroke="#F57F23" stroke-width="0.6275" stroke-miterlimit="10" cx="328.425" cy="780.611" r="1.708"/>
<g>
	<circle fill="none" stroke="#F57F23" stroke-width="0.818" stroke-miterlimit="10" cx="462.249" cy="430.419" r="2.227"/>
	<circle fill="none" stroke="#F57F23" stroke-width="0.818" stroke-miterlimit="10" cx="462.249" cy="440.108" r="2.227"/>
	<circle fill="none" stroke="#F57F23" stroke-width="0.818" stroke-miterlimit="10" cx="462.249" cy="449.797" r="2.227"/>
	<circle fill="none" stroke="#F57F23" stroke-width="0.818" stroke-miterlimit="10" cx="462.249" cy="459.486" r="2.226"/>
	<circle fill="none" stroke="#F57F23" stroke-width="0.818" stroke-miterlimit="10" cx="462.249" cy="469.176" r="2.227"/>
	<circle fill="#F57F23" stroke="#F57F23" stroke-width="0.818" stroke-miterlimit="10" cx="462.249" cy="478.865" r="2.227"/>
	<circle fill="#F57F23" stroke="#F57F23" stroke-width="0.818" stroke-miterlimit="10" cx="462.249" cy="488.554" r="2.227"/>
	<circle fill="#F57F23" stroke="#F57F23" stroke-width="0.818" stroke-miterlimit="10" cx="462.249" cy="498.243" r="2.226"/>
	<circle fill="#F57F23" stroke="#F57F23" stroke-width="0.818" stroke-miterlimit="10" cx="462.249" cy="507.933" r="2.227"/>
	<circle fill="#F57F23" stroke="#F57F23" stroke-width="0.818" stroke-miterlimit="10" cx="462.249" cy="517.622" r="2.227"/>
	<circle fill="#F57F23" stroke="#F57F23" stroke-width="0.818" stroke-miterlimit="10" cx="462.249" cy="527.311" r="2.227"/>
	<circle fill="#F57F23" stroke="#F57F23" stroke-width="0.818" stroke-miterlimit="10" cx="462.249" cy="537" r="2.226"/>
	<circle fill="#F57F23" stroke="#F57F23" stroke-width="0.818" stroke-miterlimit="10" cx="462.249" cy="546.689" r="2.227"/>
	<circle fill="#F57F23" stroke="#F57F23" stroke-width="0.818" stroke-miterlimit="10" cx="462.249" cy="556.378" r="2.227"/>
	<circle fill="#F57F23" stroke="#F57F23" stroke-width="0.818" stroke-miterlimit="10" cx="462.249" cy="566.067" r="2.227"/>
	<circle fill="#F57F23" stroke="#F57F23" stroke-width="0.818" stroke-miterlimit="10" cx="462.249" cy="575.757" r="2.226"/>
	<circle fill="#F57F23" stroke="#F57F23" stroke-width="0.818" stroke-miterlimit="10" cx="462.249" cy="585.446" r="2.227"/>
	<circle fill="#F57F23" stroke="#F57F23" stroke-width="0.818" stroke-miterlimit="10" cx="462.249" cy="595.135" r="2.227"/>
	<circle fill="#F57F23" stroke="#F57F23" stroke-width="0.818" stroke-miterlimit="10" cx="462.249" cy="604.824" r="2.227"/>
	<circle fill="#F57F23" stroke="#F57F23" stroke-width="0.818" stroke-miterlimit="10" cx="462.249" cy="614.513" r="2.227"/>
	<circle fill="#F57F23" stroke="#F57F23" stroke-width="0.818" stroke-miterlimit="10" cx="462.249" cy="624.203" r="2.227"/>
	<circle fill="#F57F23" stroke="#F57F23" stroke-width="0.818" stroke-miterlimit="10" cx="462.249" cy="633.892" r="2.227"/>
	<circle fill="#F57F23" stroke="#F57F23" stroke-width="0.818" stroke-miterlimit="10" cx="462.249" cy="643.581" r="2.227"/>
	<circle fill="#F57F23" stroke="#F57F23" stroke-width="0.818" stroke-miterlimit="10" cx="462.249" cy="653.27" r="2.227"/>
	<circle fill="#F57F23" stroke="#F57F23" stroke-width="0.818" stroke-miterlimit="10" cx="462.249" cy="662.959" r="2.228"/>
	<circle fill="#F57F23" stroke="#F57F23" stroke-width="0.818" stroke-miterlimit="10" cx="462.249" cy="672.649" r="2.227"/>
	<circle fill="#F57F23" stroke="#F57F23" stroke-width="0.818" stroke-miterlimit="10" cx="462.249" cy="682.338" r="2.227"/>
	<circle fill="#F57F23" stroke="#F57F23" stroke-width="0.818" stroke-miterlimit="10" cx="462.249" cy="692.027" r="2.227"/>
	<circle fill="#F57F23" stroke="#F57F23" stroke-width="0.818" stroke-miterlimit="10" cx="462.249" cy="701.716" r="2.227"/>
	<circle fill="#F57F23" stroke="#F57F23" stroke-width="0.818" stroke-miterlimit="10" cx="462.249" cy="711.405" r="2.226"/>
	<circle fill="#F57F23" stroke="#F57F23" stroke-width="0.818" stroke-miterlimit="10" cx="462.249" cy="721.095" r="2.227"/>
	<circle fill="#F57F23" stroke="#F57F23" stroke-width="0.818" stroke-miterlimit="10" cx="462.249" cy="730.784" r="2.227"/>
	<circle fill="#F57F23" stroke="#F57F23" stroke-width="0.818" stroke-miterlimit="10" cx="462.249" cy="740.473" r="2.227"/>
	<circle fill="#F57F23" stroke="#F57F23" stroke-width="0.818" stroke-miterlimit="10" cx="462.249" cy="750.161" r="2.227"/>
	<circle fill="#F57F23" stroke="#F57F23" stroke-width="0.818" stroke-miterlimit="10" cx="462.249" cy="759.851" r="2.226"/>
	<circle fill="#F57F23" stroke="#F57F23" stroke-width="0.818" stroke-miterlimit="10" cx="462.249" cy="769.541" r="2.227"/>
</g>
<polygon fill="#FFFFFF" points="32.826,638.818 29.576,638.818 29.576,635.568 "/>
<polygon fill="#FFFFFF" points="32.826,614.485 29.576,614.485 29.576,611.235 "/>
<polygon fill="#FFFFFF" points="32.826,590.152 29.576,590.152 29.576,586.902 "/>
<polygon fill="#FFFFFF" points="32.826,565.819 29.576,565.819 29.576,562.569 "/>
<polygon fill="#FFFFFF" points="32.826,541.486 29.576,541.486 29.576,538.236 "/>
<polygon fill="#FFFFFF" points="32.826,517.153 29.576,517.153 29.576,513.903 "/>
<polygon fill="#FFFFFF" points="32.826,492.82 29.576,492.82 29.576,489.57 "/>
<polygon fill="#FFFFFF" points="32.826,468.487 29.576,468.487 29.576,465.237 "/>
<polygon fill="#FFFFFF" points="32.826,444.154 29.576,444.154 29.576,440.904 "/>
<polygon fill="#FFFFFF" points="32.826,419.821 29.576,419.821 29.576,416.571 "/>
<polygon fill="#FFFFFF" points="32.826,395.488 29.576,395.488 29.576,392.238 "/>
<polygon fill="#FFFFFF" points="32.826,371.155 29.576,371.155 29.576,367.905 "/>
<polygon fill="#FFFFFF" points="32.826,346.822 29.576,346.822 29.576,343.572 "/>
<polygon fill="#FFFFFF" points="32.826,322.489 29.576,322.489 29.576,319.239 "/>
<polygon fill="#FFFFFF" points="32.826,298.156 29.576,298.156 29.576,294.906 "/>
<polygon fill="#FFFFFF" points="32.826,273.823 29.576,273.823 29.576,270.573 "/>
<polygon fill="#FFFFFF" points="32.826,249.49 29.576,249.49 29.576,246.24 "/>
<polygon fill="#FFFFFF" points="32.826,225.157 29.576,225.157 29.576,221.907 "/>
<polygon fill="#FFFFFF" points="32.826,200.824 29.576,200.824 29.576,197.574 "/>
<polygon fill="#FFFFFF" points="32.826,176.491 29.576,176.491 29.576,173.241 "/>
<polygon fill="#FFFFFF" points="32.826,152.158 29.576,152.158 29.576,148.908 "/>
<polygon fill="#FFFFFF" points="32.826,127.825 29.576,127.825 29.576,124.575 "/>
<polyline fill="none" stroke="#FFFFFF" stroke-miterlimit="10" points="57.035,88.695 43.868,88.695 43.868,132.861 57.035,132.861 
	"/>
<polygon fill="none" stroke="#FFFFFF" stroke-linecap="round" stroke-linejoin="round" stroke-miterlimit="10" points="
	51.207,119.515 51.329,110.778 51.451,102.041 58.957,106.515 66.462,110.989 58.835,115.252 "/>
<polyline fill="none" stroke="#FFFFFF" stroke-linecap="round" stroke-linejoin="round" stroke-miterlimit="10" points="
	58.091,102.041 65.597,106.515 73.102,110.989 65.475,115.252 57.847,119.515 "/>
<g>
	<polyline fill="none" stroke="#FFFFFF" stroke-miterlimit="10" points="395.42,132.861 408.587,132.861 408.587,88.694 
		395.42,88.694 	"/>
	<polygon fill="none" stroke="#FFFFFF" stroke-linecap="round" stroke-linejoin="round" stroke-miterlimit="10" points="
		401.248,102.041 401.126,110.778 401.004,119.515 393.498,115.041 385.993,110.567 393.62,106.304 	"/>
	<polyline fill="none" stroke="#FFFFFF" stroke-linecap="round" stroke-linejoin="round" stroke-miterlimit="10" points="
		394.364,119.515 386.858,115.041 379.353,110.567 386.98,106.304 394.608,102.041 	"/>
</g>
<circle fill="none" stroke="#FFFFFF" stroke-width="0.54" stroke-miterlimit="10" cx="457.759" cy="21.699" r="6.75"/>
<g>
	<g>
		<path fill="none" stroke="#FFFFFF" stroke-width="0.3988" stroke-miterlimit="10" d="M459.399,24.522h0.456
			c0.402,0,0.729-0.327,0.729-0.729v-0.456"/>
		<path fill="none" stroke="#FFFFFF" stroke-width="0.3988" stroke-miterlimit="10" d="M460.583,20.056v-0.454
			c0-0.404-0.326-0.729-0.729-0.729h-0.456"/>
		<path fill="none" stroke="#FFFFFF" stroke-width="0.3988" stroke-miterlimit="10" d="M456.119,18.873h-0.456
			c-0.402,0-0.729,0.325-0.729,0.729v0.454"/>
		<path fill="none" stroke="#FFFFFF" stroke-width="0.3988" stroke-miterlimit="10" d="M454.934,23.337v0.456
			c0,0.402,0.326,0.729,0.729,0.729h0.456"/>
	</g>
	<path fill="none" stroke="#FFFFFF" stroke-width="0.3988" stroke-miterlimit="10" d="M456.7,21.096
		c0-0.253,0.205-0.458,0.457-0.458h1.204c0.253,0,0.458,0.206,0.458,0.458V22.3c0,0.253-0.205,0.457-0.458,0.457h-1.204
		c-0.252,0-0.457-0.204-0.457-0.457V21.096z"/>
</g>
<path fill="none" stroke="#FFFFFF" stroke-width="0.54" stroke-miterlimit="10" d="M449.818,27.098
	c-1.834,0-3.322-1.487-3.322-3.322v-4.15c0-1.835,1.488-3.322,3.322-3.322"/>
<polygon fill="#FFFFFF" points="468.734,136.826 473.035,134.343 477.336,131.86 477.336,136.826 477.336,141.792 473.035,139.31 
	"/>
<polygon fill="#FFFFFF" points="414.895,160.543 417.734,158.06 420.574,155.577 420.574,160.543 420.574,165.51 417.734,163.027 
	"/>
<polygon fill="#FFFFFF" points="414.895,634.567 417.734,632.083 420.574,629.6 420.574,634.567 420.574,639.534 417.734,637.05 "/>
<line fill="none" stroke="#FFFFFF" stroke-width="2" stroke-miterlimit="10" x1="35.702" y1="27.362" x2="39.035" y2="27.362"/>
<polyline fill="none" stroke="#FFFFFF" stroke-width="2" stroke-miterlimit="10" points="43.868,27.362 440.243,27.362 
	457.576,44.695 457.576,106.362 "/>
<polyline fill="none" stroke="#FFFFFF" stroke-width="2" stroke-miterlimit="10" points="457.576,110.778 441.451,126.903 
	441.451,286.028 457.514,302.09 457.514,369.695 "/>
<polyline fill="none" stroke="#FFFFFF" stroke-miterlimit="10" points="391.912,39.029 413.91,39.029 430.91,56.029 452.243,56.029 
	"/>
<polyline fill="none" stroke="#FFFFFF" stroke-miterlimit="10" points="413.243,34.695 391.912,34.695 378.099,44.029 
	104.703,44.029 89.703,34.695 70.037,34.695 "/>
<line fill="none" stroke="#FFFFFF" stroke-miterlimit="10" x1="43.868" y1="33.029" x2="436.634" y2="33.029"/>
<circle fill="#FFFFFF" cx="111.138" cy="38.464" r="2.062"/>
<circle fill="#FFFFFF" cx="117.388" cy="38.464" r="2.062"/>
<circle fill="#FFFFFF" cx="123.638" cy="38.464" r="2.062"/>
<circle fill="#FFFFFF" cx="129.888" cy="38.464" r="2.062"/>
<circle fill="#FFFFFF" cx="136.138" cy="38.464" r="2.062"/>
<circle fill="#FFFFFF" cx="142.388" cy="38.464" r="2.062"/>
<circle fill="#FFFFFF" cx="148.638" cy="38.464" r="2.062"/>
<circle fill="#FFFFFF" cx="154.888" cy="38.464" r="2.062"/>
<circle fill="#FFFFFF" cx="161.138" cy="38.464" r="2.062"/>
<circle fill="#FFFFFF" cx="167.388" cy="38.464" r="2.062"/>
<line fill="none" stroke="#FFFFFF" stroke-width="1.3958" stroke-miterlimit="10" x1="25.151" y1="754.358" x2="336.007" y2="754.358"/>
<polyline fill="none" stroke="#FFFFFF" stroke-width="1.3958" stroke-miterlimit="10" points="28.268,757.837 21.458,757.837 
	21.458,751.027 28.268,751.027 "/>
<rect x="10.367" y="729.902" fill="#FFFFFF" width="3.958" height="1.75"/>
<path fill="none" stroke="#FFFFFF" stroke-miterlimit="10" d="M60.554,780.61H37.346c-13.807,0-25-11.192-25-25v-21.083"/>
<line fill="none" stroke="#FFFFFF" stroke-width="0.6617" stroke-miterlimit="10" x1="420.58" y1="183.671" x2="414.625" y2="183.671"/>
<line fill="none" stroke="#FFFFFF" stroke-width="0.6617" stroke-miterlimit="10" x1="420.58" y1="188.799" x2="417.274" y2="188.799"/>
<line fill="none" stroke="#FFFFFF" stroke-width="0.6617" stroke-miterlimit="10" x1="420.58" y1="193.926" x2="417.274" y2="193.926"/>
<line fill="none" stroke="#FFFFFF" stroke-width="0.6617" stroke-miterlimit="10" x1="420.58" y1="199.054" x2="417.274" y2="199.054"/>
<line fill="none" stroke="#FFFFFF" stroke-width="0.6617" stroke-miterlimit="10" x1="420.58" y1="204.181" x2="417.274" y2="204.181"/>
<line fill="none" stroke="#FFFFFF" stroke-width="0.6617" stroke-miterlimit="10" x1="420.58" y1="209.309" x2="414.625" y2="209.309"/>
<line fill="none" stroke="#FFFFFF" stroke-width="0.6617" stroke-miterlimit="10" x1="420.58" y1="209.309" x2="414.625" y2="209.309"/>
<line fill="none" stroke="#FFFFFF" stroke-width="0.6617" stroke-miterlimit="10" x1="420.58" y1="214.436" x2="417.274" y2="214.436"/>
<line fill="none" stroke="#FFFFFF" stroke-width="0.6617" stroke-miterlimit="10" x1="420.58" y1="219.564" x2="417.274" y2="219.564"/>
<line fill="none" stroke="#FFFFFF" stroke-width="0.6617" stroke-miterlimit="10" x1="420.58" y1="224.69" x2="417.274" y2="224.69"/>
<line fill="none" stroke="#FFFFFF" stroke-width="0.6617" stroke-miterlimit="10" x1="420.58" y1="229.819" x2="417.274" y2="229.819"/>
<line fill="none" stroke="#FFFFFF" stroke-width="0.6617" stroke-miterlimit="10" x1="420.58" y1="234.945" x2="414.625" y2="234.945"/>
<line fill="none" stroke="#FFFFFF" stroke-width="0.6617" stroke-miterlimit="10" x1="420.58" y1="234.945" x2="414.625" y2="234.945"/>
<line fill="none" stroke="#FFFFFF" stroke-width="0.6617" stroke-miterlimit="10" x1="420.58" y1="240.074" x2="417.274" y2="240.074"/>
<line fill="none" stroke="#FFFFFF" stroke-width="0.6617" stroke-miterlimit="10" x1="420.58" y1="245.201" x2="417.274" y2="245.201"/>
<line fill="none" stroke="#FFFFFF" stroke-width="0.6617" stroke-miterlimit="10" x1="420.58" y1="250.329" x2="417.274" y2="250.329"/>
<line fill="none" stroke="#FFFFFF" stroke-width="0.6617" stroke-miterlimit="10" x1="420.58" y1="255.456" x2="417.274" y2="255.456"/>
<line fill="none" stroke="#FFFFFF" stroke-width="0.6617" stroke-miterlimit="10" x1="420.58" y1="260.583" x2="414.625" y2="260.583"/>
<line fill="none" stroke="#FFFFFF" stroke-width="0.6617" stroke-miterlimit="10" x1="420.58" y1="260.583" x2="414.625" y2="260.583"/>
<line fill="none" stroke="#FFFFFF" stroke-width="0.6617" stroke-miterlimit="10" x1="420.58" y1="265.71" x2="417.274" y2="265.71"/>
<line fill="none" stroke="#FFFFFF" stroke-width="0.6617" stroke-miterlimit="10" x1="420.58" y1="270.838" x2="417.274" y2="270.838"/>
<line fill="none" stroke="#FFFFFF" stroke-width="0.6617" stroke-miterlimit="10" x1="420.58" y1="275.965" x2="417.274" y2="275.965"/>
<line fill="none" stroke="#FFFFFF" stroke-width="0.6617" stroke-miterlimit="10" x1="420.58" y1="281.093" x2="417.274" y2="281.093"/>
<line fill="none" stroke="#FFFFFF" stroke-width="0.6617" stroke-miterlimit="10" x1="420.58" y1="286.22" x2="414.625" y2="286.22"/>
<line fill="none" stroke="#FFFFFF" stroke-width="0.6617" stroke-miterlimit="10" x1="420.58" y1="286.22" x2="414.625" y2="286.22"/>
<line fill="none" stroke="#FFFFFF" stroke-width="0.6617" stroke-miterlimit="10" x1="420.58" y1="291.348" x2="417.274" y2="291.348"/>
<line fill="none" stroke="#FFFFFF" stroke-width="0.6617" stroke-miterlimit="10" x1="420.58" y1="296.475" x2="417.274" y2="296.475"/>
<line fill="none" stroke="#FFFFFF" stroke-width="0.6617" stroke-miterlimit="10" x1="420.58" y1="301.603" x2="417.274" y2="301.603"/>
<line fill="none" stroke="#FFFFFF" stroke-width="0.6617" stroke-miterlimit="10" x1="420.58" y1="306.73" x2="417.274" y2="306.73"/>
<line fill="none" stroke="#FFFFFF" stroke-width="0.6617" stroke-miterlimit="10" x1="420.58" y1="311.858" x2="414.625" y2="311.858"/>
<line fill="none" stroke="#FFFFFF" stroke-width="0.6617" stroke-miterlimit="10" x1="420.58" y1="311.858" x2="414.625" y2="311.858"/>
<line fill="none" stroke="#FFFFFF" stroke-width="0.6617" stroke-miterlimit="10" x1="420.58" y1="316.985" x2="417.274" y2="316.985"/>
<line fill="none" stroke="#FFFFFF" stroke-width="0.6617" stroke-miterlimit="10" x1="420.58" y1="322.113" x2="417.274" y2="322.113"/>
<line fill="none" stroke="#FFFFFF" stroke-width="0.6617" stroke-miterlimit="10" x1="420.58" y1="327.24" x2="417.274" y2="327.24"/>
<line fill="none" stroke="#FFFFFF" stroke-width="0.6617" stroke-miterlimit="10" x1="420.58" y1="332.368" x2="417.274" y2="332.368"/>
<line fill="none" stroke="#FFFFFF" stroke-width="0.6617" stroke-miterlimit="10" x1="420.58" y1="337.495" x2="414.625" y2="337.495"/>
<line fill="none" stroke="#FFFFFF" stroke-width="0.6617" stroke-miterlimit="10" x1="420.58" y1="337.495" x2="414.625" y2="337.495"/>
<line fill="none" stroke="#FFFFFF" stroke-width="0.6617" stroke-miterlimit="10" x1="420.58" y1="342.623" x2="417.274" y2="342.623"/>
<line fill="none" stroke="#FFFFFF" stroke-width="0.6617" stroke-miterlimit="10" x1="420.579" y1="347.75" x2="417.273" y2="347.75"/>
<line fill="none" stroke="#FFFFFF" stroke-width="0.6617" stroke-miterlimit="10" x1="420.579" y1="352.878" x2="417.273" y2="352.878"/>
<line fill="none" stroke="#FFFFFF" stroke-width="0.6617" stroke-miterlimit="10" x1="420.579" y1="358.004" x2="417.273" y2="358.004"/>
<line fill="none" stroke="#FFFFFF" stroke-width="0.6617" stroke-miterlimit="10" x1="420.579" y1="363.133" x2="414.624" y2="363.133"/>
<line fill="none" stroke="#FFFFFF" stroke-width="0.6617" stroke-miterlimit="10" x1="420.579" y1="363.133" x2="414.624" y2="363.133"/>
<line fill="none" stroke="#FFFFFF" stroke-width="0.6617" stroke-miterlimit="10" x1="420.579" y1="368.259" x2="417.273" y2="368.259"/>
<line fill="none" stroke="#FFFFFF" stroke-width="0.6617" stroke-miterlimit="10" x1="420.579" y1="373.388" x2="417.273" y2="373.388"/>
<line fill="none" stroke="#FFFFFF" stroke-width="0.6617" stroke-miterlimit="10" x1="420.579" y1="378.514" x2="417.273" y2="378.514"/>
<line fill="none" stroke="#FFFFFF" stroke-width="0.6617" stroke-miterlimit="10" x1="420.579" y1="383.643" x2="417.273" y2="383.643"/>
<line fill="none" stroke="#FFFFFF" stroke-width="0.6617" stroke-miterlimit="10" x1="420.579" y1="388.769" x2="414.624" y2="388.769"/>
<line fill="none" stroke="#FFFFFF" stroke-width="0.6617" stroke-miterlimit="10" x1="420.579" y1="388.769" x2="414.624" y2="388.769"/>
<line fill="none" stroke="#FFFFFF" stroke-width="0.6617" stroke-miterlimit="10" x1="420.579" y1="393.897" x2="417.273" y2="393.897"/>
<line fill="none" stroke="#FFFFFF" stroke-width="0.6617" stroke-miterlimit="10" x1="420.579" y1="399.024" x2="417.273" y2="399.024"/>
<line fill="none" stroke="#FFFFFF" stroke-width="0.6617" stroke-miterlimit="10" x1="420.579" y1="404.152" x2="417.273" y2="404.152"/>
<line fill="none" stroke="#FFFFFF" stroke-width="0.6617" stroke-miterlimit="10" x1="420.579" y1="409.279" x2="417.273" y2="409.279"/>
<line fill="none" stroke="#FFFFFF" stroke-width="0.6617" stroke-miterlimit="10" x1="420.579" y1="414.408" x2="414.624" y2="414.408"/>
<line fill="none" stroke="#FFFFFF" stroke-width="0.6617" stroke-miterlimit="10" x1="420.579" y1="414.408" x2="414.624" y2="414.408"/>
<line fill="none" stroke="#FFFFFF" stroke-width="0.6617" stroke-miterlimit="10" x1="420.579" y1="419.534" x2="417.273" y2="419.534"/>
<line fill="none" stroke="#FFFFFF" stroke-width="0.6617" stroke-miterlimit="10" x1="420.579" y1="424.663" x2="417.273" y2="424.663"/>
<line fill="none" stroke="#FFFFFF" stroke-width="0.6617" stroke-miterlimit="10" x1="420.579" y1="429.789" x2="417.273" y2="429.789"/>
<line fill="none" stroke="#FFFFFF" stroke-width="0.6617" stroke-miterlimit="10" x1="420.579" y1="434.917" x2="417.273" y2="434.917"/>
<line fill="none" stroke="#FFFFFF" stroke-width="0.6617" stroke-miterlimit="10" x1="420.579" y1="440.043" x2="414.624" y2="440.043"/>
<line fill="none" stroke="#FFFFFF" stroke-width="0.6617" stroke-miterlimit="10" x1="420.579" y1="440.043" x2="414.624" y2="440.043"/>
<line fill="none" stroke="#FFFFFF" stroke-width="0.6617" stroke-miterlimit="10" x1="420.579" y1="445.172" x2="417.273" y2="445.172"/>
<line fill="none" stroke="#FFFFFF" stroke-width="0.6617" stroke-miterlimit="10" x1="420.579" y1="450.298" x2="417.273" y2="450.298"/>
<line fill="none" stroke="#FFFFFF" stroke-width="0.6617" stroke-miterlimit="10" x1="420.579" y1="455.427" x2="417.273" y2="455.427"/>
<line fill="none" stroke="#FFFFFF" stroke-width="0.6617" stroke-miterlimit="10" x1="420.579" y1="460.554" x2="417.273" y2="460.554"/>
<line fill="none" stroke="#FFFFFF" stroke-width="0.6617" stroke-miterlimit="10" x1="420.579" y1="465.681" x2="414.624" y2="465.681"/>
<line fill="none" stroke="#FFFFFF" stroke-width="0.6617" stroke-miterlimit="10" x1="420.579" y1="465.681" x2="414.624" y2="465.681"/>
<line fill="none" stroke="#FFFFFF" stroke-width="0.6617" stroke-miterlimit="10" x1="420.579" y1="470.809" x2="417.273" y2="470.809"/>
<line fill="none" stroke="#FFFFFF" stroke-width="0.6617" stroke-miterlimit="10" x1="420.579" y1="475.937" x2="417.273" y2="475.937"/>
<line fill="none" stroke="#FFFFFF" stroke-width="0.6617" stroke-miterlimit="10" x1="420.579" y1="481.063" x2="417.273" y2="481.063"/>
<line fill="none" stroke="#FFFFFF" stroke-width="0.6617" stroke-miterlimit="10" x1="420.579" y1="486.191" x2="417.273" y2="486.191"/>
<line fill="none" stroke="#FFFFFF" stroke-width="0.6617" stroke-miterlimit="10" x1="420.579" y1="491.319" x2="414.624" y2="491.319"/>
<line fill="none" stroke="#FFFFFF" stroke-width="0.6617" stroke-miterlimit="10" x1="420.579" y1="491.319" x2="414.624" y2="491.319"/>
<line fill="none" stroke="#FFFFFF" stroke-width="0.6617" stroke-miterlimit="10" x1="420.579" y1="496.447" x2="417.273" y2="496.447"/>
<line fill="none" stroke="#FFFFFF" stroke-width="0.6617" stroke-miterlimit="10" x1="420.579" y1="501.573" x2="417.273" y2="501.573"/>
<line fill="none" stroke="#FFFFFF" stroke-width="0.6617" stroke-miterlimit="10" x1="420.579" y1="506.701" x2="417.273" y2="506.701"/>
<line fill="none" stroke="#FFFFFF" stroke-width="0.6617" stroke-miterlimit="10" x1="420.579" y1="511.829" x2="417.273" y2="511.829"/>
<line fill="none" stroke="#FFFFFF" stroke-width="0.6617" stroke-miterlimit="10" x1="420.579" y1="516.957" x2="414.624" y2="516.957"/>
<line fill="none" stroke="#FFFFFF" stroke-width="0.6617" stroke-miterlimit="10" x1="420.579" y1="516.957" x2="414.624" y2="516.957"/>
<line fill="none" stroke="#FFFFFF" stroke-width="0.6617" stroke-miterlimit="10" x1="420.579" y1="522.083" x2="417.273" y2="522.083"/>
<line fill="none" stroke="#FFFFFF" stroke-width="0.6617" stroke-miterlimit="10" x1="420.579" y1="527.21" x2="417.273" y2="527.21"/>
<line fill="none" stroke="#FFFFFF" stroke-width="0.6617" stroke-miterlimit="10" x1="420.579" y1="532.338" x2="417.273" y2="532.338"/>
<line fill="none" stroke="#FFFFFF" stroke-width="0.6617" stroke-miterlimit="10" x1="420.579" y1="537.467" x2="417.273" y2="537.467"/>
<line fill="none" stroke="#FFFFFF" stroke-width="0.6617" stroke-miterlimit="10" x1="420.579" y1="542.592" x2="414.624" y2="542.592"/>
<line fill="none" stroke="#FFFFFF" stroke-width="0.6617" stroke-miterlimit="10" x1="420.579" y1="547.72" x2="417.273" y2="547.72"/>
<line fill="none" stroke="#FFFFFF" stroke-width="0.6617" stroke-miterlimit="10" x1="420.579" y1="552.849" x2="417.273" y2="552.849"/>
<line fill="none" stroke="#FFFFFF" stroke-width="0.6617" stroke-miterlimit="10" x1="420.579" y1="557.977" x2="417.273" y2="557.977"/>
<line fill="none" stroke="#FFFFFF" stroke-width="0.6617" stroke-miterlimit="10" x1="420.579" y1="563.102" x2="417.273" y2="563.102"/>
<line fill="none" stroke="#FFFFFF" stroke-width="0.6617" stroke-miterlimit="10" x1="420.579" y1="568.23" x2="414.624" y2="568.23"/>
<line fill="none" stroke="#FFFFFF" stroke-width="0.6617" stroke-miterlimit="10" x1="420.579" y1="573.359" x2="417.273" y2="573.359"/>
<line fill="none" stroke="#FFFFFF" stroke-width="0.6617" stroke-miterlimit="10" x1="420.579" y1="578.487" x2="417.273" y2="578.487"/>
<line fill="none" stroke="#FFFFFF" stroke-width="0.6617" stroke-miterlimit="10" x1="420.579" y1="583.612" x2="417.273" y2="583.612"/>
<line fill="none" stroke="#FFFFFF" stroke-width="0.6617" stroke-miterlimit="10" x1="420.579" y1="588.74" x2="417.273" y2="588.74"/>
<line fill="none" stroke="#FFFFFF" stroke-width="0.6617" stroke-miterlimit="10" x1="420.579" y1="593.869" x2="414.624" y2="593.869"/>
<line fill="none" stroke="#FFFFFF" stroke-width="0.6617" stroke-miterlimit="10" x1="420.579" y1="593.869" x2="414.624" y2="593.869"/>
<line fill="none" stroke="#FFFFFF" stroke-width="0.6617" stroke-miterlimit="10" x1="420.579" y1="598.994" x2="417.273" y2="598.994"/>
<line fill="none" stroke="#FFFFFF" stroke-width="0.6617" stroke-miterlimit="10" x1="420.579" y1="604.122" x2="417.273" y2="604.122"/>
<line fill="none" stroke="#FFFFFF" stroke-width="0.6617" stroke-miterlimit="10" x1="420.579" y1="609.25" x2="417.273" y2="609.25"/>
<line fill="none" stroke="#FFFFFF" stroke-width="0.6617" stroke-miterlimit="10" x1="420.579" y1="614.378" x2="417.273" y2="614.378"/>
<line fill="none" stroke="#FFFFFF" stroke-width="0.6617" stroke-miterlimit="10" x1="420.579" y1="619.503" x2="414.624" y2="619.503"/>
<path fill="none" stroke="#FFFFFF" stroke-width="0.6617" stroke-miterlimit="10" d="M431.271,136.827c-2.761,0-5,2.238-5,5v511.2
	c0,2.762,2.239,5,5,5"/>
<g>
	
		<rect x="11.85" y="111.964" fill="none" stroke="#FFFFFF" stroke-width="0.6617" stroke-miterlimit="10" width="4.5" height="4.5"/>
	
		<line fill="none" stroke="#FFFFFF" stroke-width="0.6617" stroke-miterlimit="10" x1="8.678" y1="108.714" x2="11.928" y2="111.964"/>
	
		<line fill="none" stroke="#FFFFFF" stroke-width="0.6617" stroke-miterlimit="10" x1="16.472" y1="116.508" x2="19.722" y2="119.758"/>
	
		<line fill="none" stroke="#FFFFFF" stroke-width="0.6617" stroke-miterlimit="10" x1="8.678" y1="119.758" x2="11.928" y2="116.508"/>
	
		<line fill="none" stroke="#FFFFFF" stroke-width="0.6617" stroke-miterlimit="10" x1="16.472" y1="111.964" x2="19.722" y2="108.714"/>
</g>
<g>
	
		<rect x="11.85" y="136.111" fill="none" stroke="#FFFFFF" stroke-width="0.6617" stroke-miterlimit="10" width="4.5" height="4.5"/>
	
		<line fill="none" stroke="#FFFFFF" stroke-width="0.6617" stroke-miterlimit="10" x1="8.678" y1="132.861" x2="11.928" y2="136.111"/>
	
		<line fill="none" stroke="#FFFFFF" stroke-width="0.6617" stroke-miterlimit="10" x1="16.472" y1="140.655" x2="19.722" y2="143.905"/>
	
		<line fill="none" stroke="#FFFFFF" stroke-width="0.6617" stroke-miterlimit="10" x1="8.678" y1="143.905" x2="11.928" y2="140.655"/>
	
		<line fill="none" stroke="#FFFFFF" stroke-width="0.6617" stroke-miterlimit="10" x1="16.472" y1="136.111" x2="19.722" y2="132.861"/>
</g>
<g>
	
		<rect x="11.85" y="160.258" fill="none" stroke="#FFFFFF" stroke-width="0.6617" stroke-miterlimit="10" width="4.5" height="4.5"/>
	
		<line fill="none" stroke="#FFFFFF" stroke-width="0.6617" stroke-miterlimit="10" x1="8.678" y1="157.008" x2="11.928" y2="160.258"/>
	
		<line fill="none" stroke="#FFFFFF" stroke-width="0.6617" stroke-miterlimit="10" x1="16.472" y1="164.802" x2="19.722" y2="168.052"/>
	
		<line fill="none" stroke="#FFFFFF" stroke-width="0.6617" stroke-miterlimit="10" x1="8.678" y1="168.052" x2="11.928" y2="164.802"/>
	
		<line fill="none" stroke="#FFFFFF" stroke-width="0.6617" stroke-miterlimit="10" x1="16.472" y1="160.258" x2="19.722" y2="157.008"/>
</g>
<g>
	
		<rect x="11.85" y="184.405" fill="none" stroke="#FFFFFF" stroke-width="0.6617" stroke-miterlimit="10" width="4.5" height="4.5"/>
	
		<line fill="none" stroke="#FFFFFF" stroke-width="0.6617" stroke-miterlimit="10" x1="8.678" y1="181.155" x2="11.928" y2="184.405"/>
	
		<line fill="none" stroke="#FFFFFF" stroke-width="0.6617" stroke-miterlimit="10" x1="16.472" y1="188.949" x2="19.722" y2="192.199"/>
	
		<line fill="none" stroke="#FFFFFF" stroke-width="0.6617" stroke-miterlimit="10" x1="8.678" y1="192.199" x2="11.928" y2="188.949"/>
	
		<line fill="none" stroke="#FFFFFF" stroke-width="0.6617" stroke-miterlimit="10" x1="16.472" y1="184.405" x2="19.722" y2="181.155"/>
</g>
<g>
	
		<rect x="11.85" y="208.552" fill="none" stroke="#FFFFFF" stroke-width="0.6617" stroke-miterlimit="10" width="4.5" height="4.5"/>
	
		<line fill="none" stroke="#FFFFFF" stroke-width="0.6617" stroke-miterlimit="10" x1="8.678" y1="205.302" x2="11.928" y2="208.552"/>
	
		<line fill="none" stroke="#FFFFFF" stroke-width="0.6617" stroke-miterlimit="10" x1="16.472" y1="213.096" x2="19.722" y2="216.346"/>
	
		<line fill="none" stroke="#FFFFFF" stroke-width="0.6617" stroke-miterlimit="10" x1="8.678" y1="216.346" x2="11.928" y2="213.096"/>
	
		<line fill="none" stroke="#FFFFFF" stroke-width="0.6617" stroke-miterlimit="10" x1="16.472" y1="208.552" x2="19.722" y2="205.302"/>
</g>
<g>
	
		<rect x="11.85" y="232.699" fill="none" stroke="#FFFFFF" stroke-width="0.6617" stroke-miterlimit="10" width="4.5" height="4.5"/>
	
		<line fill="none" stroke="#FFFFFF" stroke-width="0.6617" stroke-miterlimit="10" x1="8.678" y1="229.449" x2="11.928" y2="232.699"/>
	
		<line fill="none" stroke="#FFFFFF" stroke-width="0.6617" stroke-miterlimit="10" x1="16.472" y1="237.243" x2="19.722" y2="240.493"/>
	
		<line fill="none" stroke="#FFFFFF" stroke-width="0.6617" stroke-miterlimit="10" x1="8.678" y1="240.493" x2="11.928" y2="237.243"/>
	
		<line fill="none" stroke="#FFFFFF" stroke-width="0.6617" stroke-miterlimit="10" x1="16.472" y1="232.699" x2="19.722" y2="229.449"/>
</g>
<g>
	
		<rect x="11.85" y="256.846" fill="none" stroke="#FFFFFF" stroke-width="0.6617" stroke-miterlimit="10" width="4.5" height="4.5"/>
	
		<line fill="none" stroke="#FFFFFF" stroke-width="0.6617" stroke-miterlimit="10" x1="8.678" y1="253.596" x2="11.928" y2="256.846"/>
	
		<line fill="none" stroke="#FFFFFF" stroke-width="0.6617" stroke-miterlimit="10" x1="16.472" y1="261.39" x2="19.722" y2="264.64"/>
	
		<line fill="none" stroke="#FFFFFF" stroke-width="0.6617" stroke-miterlimit="10" x1="8.678" y1="264.64" x2="11.928" y2="261.39"/>
	
		<line fill="none" stroke="#FFFFFF" stroke-width="0.6617" stroke-miterlimit="10" x1="16.472" y1="256.846" x2="19.722" y2="253.596"/>
</g>
<g>
	
		<rect x="11.85" y="280.993" fill="none" stroke="#FFFFFF" stroke-width="0.6617" stroke-miterlimit="10" width="4.5" height="4.5"/>
	
		<line fill="none" stroke="#FFFFFF" stroke-width="0.6617" stroke-miterlimit="10" x1="8.678" y1="277.743" x2="11.928" y2="280.993"/>
	
		<line fill="none" stroke="#FFFFFF" stroke-width="0.6617" stroke-miterlimit="10" x1="16.472" y1="285.537" x2="19.722" y2="288.787"/>
	
		<line fill="none" stroke="#FFFFFF" stroke-width="0.6617" stroke-miterlimit="10" x1="8.678" y1="288.787" x2="11.928" y2="285.537"/>
	
		<line fill="none" stroke="#FFFFFF" stroke-width="0.6617" stroke-miterlimit="10" x1="16.472" y1="280.993" x2="19.722" y2="277.743"/>
</g>
<g>
	<rect x="11.85" y="305.14" fill="none" stroke="#FFFFFF" stroke-width="0.6617" stroke-miterlimit="10" width="4.5" height="4.5"/>
	
		<line fill="none" stroke="#FFFFFF" stroke-width="0.6617" stroke-miterlimit="10" x1="8.678" y1="301.89" x2="11.928" y2="305.14"/>
	
		<line fill="none" stroke="#FFFFFF" stroke-width="0.6617" stroke-miterlimit="10" x1="16.472" y1="309.684" x2="19.722" y2="312.934"/>
	
		<line fill="none" stroke="#FFFFFF" stroke-width="0.6617" stroke-miterlimit="10" x1="8.678" y1="312.934" x2="11.928" y2="309.684"/>
	
		<line fill="none" stroke="#FFFFFF" stroke-width="0.6617" stroke-miterlimit="10" x1="16.472" y1="305.14" x2="19.722" y2="301.89"/>
</g>
<g>
	
		<rect x="11.85" y="329.287" fill="none" stroke="#FFFFFF" stroke-width="0.6617" stroke-miterlimit="10" width="4.5" height="4.5"/>
	
		<line fill="none" stroke="#FFFFFF" stroke-width="0.6617" stroke-miterlimit="10" x1="8.678" y1="326.037" x2="11.928" y2="329.287"/>
	
		<line fill="none" stroke="#FFFFFF" stroke-width="0.6617" stroke-miterlimit="10" x1="16.472" y1="333.831" x2="19.722" y2="337.081"/>
	
		<line fill="none" stroke="#FFFFFF" stroke-width="0.6617" stroke-miterlimit="10" x1="8.678" y1="337.081" x2="11.928" y2="333.831"/>
	
		<line fill="none" stroke="#FFFFFF" stroke-width="0.6617" stroke-miterlimit="10" x1="16.472" y1="329.287" x2="19.722" y2="326.037"/>
</g>
<g>
	
		<rect x="11.85" y="353.434" fill="none" stroke="#FFFFFF" stroke-width="0.6617" stroke-miterlimit="10" width="4.5" height="4.5"/>
	
		<line fill="none" stroke="#FFFFFF" stroke-width="0.6617" stroke-miterlimit="10" x1="8.678" y1="350.184" x2="11.928" y2="353.434"/>
	
		<line fill="none" stroke="#FFFFFF" stroke-width="0.6617" stroke-miterlimit="10" x1="16.472" y1="357.978" x2="19.722" y2="361.228"/>
	
		<line fill="none" stroke="#FFFFFF" stroke-width="0.6617" stroke-miterlimit="10" x1="8.678" y1="361.228" x2="11.928" y2="357.978"/>
	
		<line fill="none" stroke="#FFFFFF" stroke-width="0.6617" stroke-miterlimit="10" x1="16.472" y1="353.434" x2="19.722" y2="350.184"/>
</g>
<g>
	
		<rect x="11.85" y="377.581" fill="none" stroke="#FFFFFF" stroke-width="0.6617" stroke-miterlimit="10" width="4.5" height="4.5"/>
	
		<line fill="none" stroke="#FFFFFF" stroke-width="0.6617" stroke-miterlimit="10" x1="8.678" y1="374.331" x2="11.928" y2="377.581"/>
	
		<line fill="none" stroke="#FFFFFF" stroke-width="0.6617" stroke-miterlimit="10" x1="16.472" y1="382.125" x2="19.722" y2="385.375"/>
	
		<line fill="none" stroke="#FFFFFF" stroke-width="0.6617" stroke-miterlimit="10" x1="8.678" y1="385.375" x2="11.928" y2="382.125"/>
	
		<line fill="none" stroke="#FFFFFF" stroke-width="0.6617" stroke-miterlimit="10" x1="16.472" y1="377.581" x2="19.722" y2="374.331"/>
</g>
<g>
	
		<rect x="11.85" y="401.728" fill="none" stroke="#FFFFFF" stroke-width="0.6617" stroke-miterlimit="10" width="4.5" height="4.5"/>
	
		<line fill="none" stroke="#FFFFFF" stroke-width="0.6617" stroke-miterlimit="10" x1="8.678" y1="398.478" x2="11.928" y2="401.728"/>
	
		<line fill="none" stroke="#FFFFFF" stroke-width="0.6617" stroke-miterlimit="10" x1="16.472" y1="406.272" x2="19.722" y2="409.522"/>
	
		<line fill="none" stroke="#FFFFFF" stroke-width="0.6617" stroke-miterlimit="10" x1="8.678" y1="409.522" x2="11.928" y2="406.272"/>
	
		<line fill="none" stroke="#FFFFFF" stroke-width="0.6617" stroke-miterlimit="10" x1="16.472" y1="401.728" x2="19.722" y2="398.478"/>
</g>
<g>
	
		<rect x="11.85" y="425.875" fill="none" stroke="#FFFFFF" stroke-width="0.6617" stroke-miterlimit="10" width="4.5" height="4.5"/>
	
		<line fill="none" stroke="#FFFFFF" stroke-width="0.6617" stroke-miterlimit="10" x1="8.678" y1="422.625" x2="11.928" y2="425.875"/>
	
		<line fill="none" stroke="#FFFFFF" stroke-width="0.6617" stroke-miterlimit="10" x1="16.472" y1="430.419" x2="19.722" y2="433.669"/>
	
		<line fill="none" stroke="#FFFFFF" stroke-width="0.6617" stroke-miterlimit="10" x1="8.678" y1="433.669" x2="11.928" y2="430.419"/>
	
		<line fill="none" stroke="#FFFFFF" stroke-width="0.6617" stroke-miterlimit="10" x1="16.472" y1="425.875" x2="19.722" y2="422.625"/>
</g>
<g>
	
		<rect x="11.85" y="450.021" fill="none" stroke="#FFFFFF" stroke-width="0.6617" stroke-miterlimit="10" width="4.5" height="4.5"/>
	
		<line fill="none" stroke="#FFFFFF" stroke-width="0.6617" stroke-miterlimit="10" x1="8.678" y1="446.771" x2="11.928" y2="450.021"/>
	
		<line fill="none" stroke="#FFFFFF" stroke-width="0.6617" stroke-miterlimit="10" x1="16.472" y1="454.566" x2="19.722" y2="457.816"/>
	
		<line fill="none" stroke="#FFFFFF" stroke-width="0.6617" stroke-miterlimit="10" x1="8.678" y1="457.816" x2="11.928" y2="454.566"/>
	
		<line fill="none" stroke="#FFFFFF" stroke-width="0.6617" stroke-miterlimit="10" x1="16.472" y1="450.021" x2="19.722" y2="446.771"/>
</g>
<g>
	
		<rect x="11.85" y="474.167" fill="none" stroke="#FFFFFF" stroke-width="0.6617" stroke-miterlimit="10" width="4.5" height="4.5"/>
	
		<line fill="none" stroke="#FFFFFF" stroke-width="0.6617" stroke-miterlimit="10" x1="8.678" y1="470.917" x2="11.928" y2="474.167"/>
	
		<line fill="none" stroke="#FFFFFF" stroke-width="0.6617" stroke-miterlimit="10" x1="16.472" y1="478.712" x2="19.722" y2="481.962"/>
	
		<line fill="none" stroke="#FFFFFF" stroke-width="0.6617" stroke-miterlimit="10" x1="8.678" y1="481.962" x2="11.928" y2="478.712"/>
	
		<line fill="none" stroke="#FFFFFF" stroke-width="0.6617" stroke-miterlimit="10" x1="16.472" y1="474.167" x2="19.722" y2="470.917"/>
</g>
<g>
	
		<rect x="11.85" y="498.314" fill="none" stroke="#FFFFFF" stroke-width="0.6617" stroke-miterlimit="10" width="4.5" height="4.5"/>
	
		<line fill="none" stroke="#FFFFFF" stroke-width="0.6617" stroke-miterlimit="10" x1="8.678" y1="495.064" x2="11.928" y2="498.314"/>
	
		<line fill="none" stroke="#FFFFFF" stroke-width="0.6617" stroke-miterlimit="10" x1="16.472" y1="502.859" x2="19.722" y2="506.109"/>
	
		<line fill="none" stroke="#FFFFFF" stroke-width="0.6617" stroke-miterlimit="10" x1="8.678" y1="506.109" x2="11.928" y2="502.859"/>
	
		<line fill="none" stroke="#FFFFFF" stroke-width="0.6617" stroke-miterlimit="10" x1="16.472" y1="498.314" x2="19.722" y2="495.064"/>
</g>
<g>
	<rect x="11.85" y="522.46" fill="none" stroke="#FFFFFF" stroke-width="0.6617" stroke-miterlimit="10" width="4.5" height="4.5"/>
	
		<line fill="none" stroke="#FFFFFF" stroke-width="0.6617" stroke-miterlimit="10" x1="8.678" y1="519.21" x2="11.928" y2="522.46"/>
	
		<line fill="none" stroke="#FFFFFF" stroke-width="0.6617" stroke-miterlimit="10" x1="16.472" y1="527.005" x2="19.722" y2="530.255"/>
	
		<line fill="none" stroke="#FFFFFF" stroke-width="0.6617" stroke-miterlimit="10" x1="8.678" y1="530.255" x2="11.928" y2="527.005"/>
	
		<line fill="none" stroke="#FFFFFF" stroke-width="0.6617" stroke-miterlimit="10" x1="16.472" y1="522.46" x2="19.722" y2="519.21"/>
</g>
<g>
	
		<rect x="11.85" y="546.607" fill="none" stroke="#FFFFFF" stroke-width="0.6617" stroke-miterlimit="10" width="4.5" height="4.5"/>
	
		<line fill="none" stroke="#FFFFFF" stroke-width="0.6617" stroke-miterlimit="10" x1="8.678" y1="543.357" x2="11.928" y2="546.607"/>
	
		<line fill="none" stroke="#FFFFFF" stroke-width="0.6617" stroke-miterlimit="10" x1="16.472" y1="551.152" x2="19.722" y2="554.402"/>
	
		<line fill="none" stroke="#FFFFFF" stroke-width="0.6617" stroke-miterlimit="10" x1="8.678" y1="554.402" x2="11.928" y2="551.152"/>
	
		<line fill="none" stroke="#FFFFFF" stroke-width="0.6617" stroke-miterlimit="10" x1="16.472" y1="546.607" x2="19.722" y2="543.357"/>
</g>
<g>
	
		<rect x="11.85" y="570.753" fill="none" stroke="#FFFFFF" stroke-width="0.6617" stroke-miterlimit="10" width="4.5" height="4.5"/>
	
		<line fill="none" stroke="#FFFFFF" stroke-width="0.6617" stroke-miterlimit="10" x1="8.678" y1="567.503" x2="11.928" y2="570.753"/>
	
		<line fill="none" stroke="#FFFFFF" stroke-width="0.6617" stroke-miterlimit="10" x1="16.472" y1="575.298" x2="19.722" y2="578.548"/>
	
		<line fill="none" stroke="#FFFFFF" stroke-width="0.6617" stroke-miterlimit="10" x1="8.678" y1="578.548" x2="11.928" y2="575.298"/>
	
		<line fill="none" stroke="#FFFFFF" stroke-width="0.6617" stroke-miterlimit="10" x1="16.472" y1="570.753" x2="19.722" y2="567.503"/>
</g>
<g>
	<rect x="11.85" y="594.9" fill="none" stroke="#FFFFFF" stroke-width="0.6617" stroke-miterlimit="10" width="4.5" height="4.5"/>
	<line fill="none" stroke="#FFFFFF" stroke-width="0.6617" stroke-miterlimit="10" x1="8.678" y1="591.65" x2="11.928" y2="594.9"/>
	
		<line fill="none" stroke="#FFFFFF" stroke-width="0.6617" stroke-miterlimit="10" x1="16.472" y1="599.445" x2="19.722" y2="602.695"/>
	
		<line fill="none" stroke="#FFFFFF" stroke-width="0.6617" stroke-miterlimit="10" x1="8.678" y1="602.695" x2="11.928" y2="599.445"/>
	
		<line fill="none" stroke="#FFFFFF" stroke-width="0.6617" stroke-miterlimit="10" x1="16.472" y1="594.9" x2="19.722" y2="591.65"/>
</g>
<g>
	
		<rect x="11.85" y="619.046" fill="none" stroke="#FFFFFF" stroke-width="0.6617" stroke-miterlimit="10" width="4.5" height="4.5"/>
	
		<line fill="none" stroke="#FFFFFF" stroke-width="0.6617" stroke-miterlimit="10" x1="8.678" y1="615.796" x2="11.928" y2="619.046"/>
	
		<line fill="none" stroke="#FFFFFF" stroke-width="0.6617" stroke-miterlimit="10" x1="16.472" y1="623.591" x2="19.722" y2="626.841"/>
	
		<line fill="none" stroke="#FFFFFF" stroke-width="0.6617" stroke-miterlimit="10" x1="8.678" y1="626.841" x2="11.928" y2="623.591"/>
	
		<line fill="none" stroke="#FFFFFF" stroke-width="0.6617" stroke-miterlimit="10" x1="16.472" y1="619.046" x2="19.722" y2="615.796"/>
</g>
</svg>
